<mxfile host="65bd71144e">
    <diagram id="1Se5fJ3k4LB6Hq802_FU" name="Page-1">
        <mxGraphModel dx="878" dy="1892" grid="1" gridSize="10" guides="1" tooltips="1" connect="1" arrows="1" fold="1" page="1" pageScale="1" pageWidth="850" pageHeight="1100" math="0" shadow="0">
            <root>
                <mxCell id="0"/>
                <mxCell id="1" parent="0"/>
                <mxCell id="7" style="edgeStyle=orthogonalEdgeStyle;html=1;exitX=0.5;exitY=1;exitDx=0;exitDy=0;entryX=0.5;entryY=0;entryDx=0;entryDy=0;" edge="1" parent="1" source="3" target="18">
                    <mxGeometry relative="1" as="geometry">
                        <Array as="points">
                            <mxPoint x="305" y="110"/>
                            <mxPoint x="205" y="110"/>
                        </Array>
                    </mxGeometry>
                </mxCell>
                <mxCell id="3" value="Parse AST" style="rounded=0;whiteSpace=wrap;html=1;fillColor=#dae8fc;strokeColor=#000000;" parent="1" vertex="1">
                    <mxGeometry x="260" y="60" width="90" height="30" as="geometry"/>
                </mxCell>
                <mxCell id="27" style="edgeStyle=orthogonalEdgeStyle;html=1;exitX=1;exitY=0.5;exitDx=0;exitDy=0;fontSize=10;" edge="1" parent="1" source="4">
                    <mxGeometry relative="1" as="geometry">
                        <mxPoint x="390" y="155.31034482758628" as="targetPoint"/>
                    </mxGeometry>
                </mxCell>
                <mxCell id="30" style="edgeStyle=orthogonalEdgeStyle;html=1;exitX=0.25;exitY=1;exitDx=0;exitDy=0;entryX=0;entryY=0.5;entryDx=0;entryDy=0;fontSize=10;" edge="1" parent="1" source="4" target="29">
                    <mxGeometry relative="1" as="geometry">
                        <Array as="points">
                            <mxPoint x="282" y="190"/>
                            <mxPoint x="260" y="190"/>
                            <mxPoint x="260" y="215"/>
                        </Array>
                    </mxGeometry>
                </mxCell>
                <mxCell id="38" style="edgeStyle=orthogonalEdgeStyle;html=1;exitX=0.75;exitY=0;exitDx=0;exitDy=0;entryX=0;entryY=0.5;entryDx=0;entryDy=0;fontSize=10;" edge="1" parent="1" source="4" target="37">
                    <mxGeometry relative="1" as="geometry"/>
                </mxCell>
                <mxCell id="4" value="Logical Plan" style="rounded=0;whiteSpace=wrap;html=1;fillColor=#dae8fc;strokeColor=#000000;" parent="1" vertex="1">
                    <mxGeometry x="260" y="140" width="90" height="30" as="geometry"/>
                </mxCell>
                <mxCell id="17" style="edgeStyle=orthogonalEdgeStyle;html=1;exitX=1;exitY=0.5;exitDx=0;exitDy=0;entryX=0.5;entryY=0;entryDx=0;entryDy=0;" edge="1" parent="1" source="6" target="15">
                    <mxGeometry relative="1" as="geometry"/>
                </mxCell>
                <mxCell id="6" value="Compiler Tokens" style="rounded=0;whiteSpace=wrap;html=1;fillColor=#f8cecc;strokeColor=#000000;" vertex="1" parent="1">
                    <mxGeometry x="60" y="10" width="100" height="30" as="geometry"/>
                </mxCell>
                <mxCell id="22" style="edgeStyle=orthogonalEdgeStyle;html=1;fontSize=10;" edge="1" parent="1">
                    <mxGeometry relative="1" as="geometry">
                        <mxPoint x="10" y="195" as="targetPoint"/>
                        <mxPoint x="60" y="195" as="sourcePoint"/>
                        <Array as="points">
                            <mxPoint x="40" y="195"/>
                            <mxPoint x="40" y="195"/>
                        </Array>
                    </mxGeometry>
                </mxCell>
                <mxCell id="12" value="Compiler Errors" style="rounded=0;whiteSpace=wrap;html=1;fillColor=#f8cecc;strokeColor=#000000;" vertex="1" parent="1">
                    <mxGeometry x="60" y="180" width="100" height="30" as="geometry"/>
                </mxCell>
                <mxCell id="20" style="edgeStyle=orthogonalEdgeStyle;html=1;exitX=0;exitY=0.5;exitDx=0;exitDy=0;entryX=0.5;entryY=0;entryDx=0;entryDy=0;fontSize=10;" edge="1" parent="1" source="15" target="12">
                    <mxGeometry relative="1" as="geometry"/>
                </mxCell>
                <mxCell id="24" style="edgeStyle=orthogonalEdgeStyle;html=1;exitX=1;exitY=0.5;exitDx=0;exitDy=0;entryX=0;entryY=0.5;entryDx=0;entryDy=0;fontSize=10;" edge="1" parent="1" source="15" target="3">
                    <mxGeometry relative="1" as="geometry"/>
                </mxCell>
                <mxCell id="15" value="Parser" style="ellipse;whiteSpace=wrap;html=1;aspect=fixed;fontSize=10;fillColor=#f8cecc;strokeColor=#000000;" vertex="1" parent="1">
                    <mxGeometry x="180" y="50" width="50" height="50" as="geometry"/>
                </mxCell>
                <mxCell id="21" style="edgeStyle=orthogonalEdgeStyle;html=1;exitX=0;exitY=0.5;exitDx=0;exitDy=0;entryX=0.75;entryY=0;entryDx=0;entryDy=0;fontSize=10;" edge="1" parent="1" source="18" target="12">
                    <mxGeometry relative="1" as="geometry"/>
                </mxCell>
                <mxCell id="25" style="edgeStyle=orthogonalEdgeStyle;html=1;exitX=1;exitY=0.5;exitDx=0;exitDy=0;entryX=0;entryY=0.5;entryDx=0;entryDy=0;fontSize=10;" edge="1" parent="1" source="18" target="4">
                    <mxGeometry relative="1" as="geometry"/>
                </mxCell>
                <mxCell id="18" value="Semantic&lt;br style=&quot;font-size: 10px;&quot;&gt;Analysis" style="ellipse;whiteSpace=wrap;html=1;aspect=fixed;fontSize=10;fillColor=#dae8fc;strokeColor=#000000;" vertex="1" parent="1">
                    <mxGeometry x="180" y="130" width="50" height="50" as="geometry"/>
                </mxCell>
                <mxCell id="23" style="edgeStyle=orthogonalEdgeStyle;html=1;fontSize=10;" edge="1" parent="1">
                    <mxGeometry relative="1" as="geometry">
                        <mxPoint x="60" y="24.71" as="targetPoint"/>
                        <mxPoint x="10" y="24.71" as="sourcePoint"/>
                    </mxGeometry>
                </mxCell>
                <mxCell id="34" style="edgeStyle=orthogonalEdgeStyle;html=1;exitX=0.25;exitY=1;exitDx=0;exitDy=0;entryX=0;entryY=0.5;entryDx=0;entryDy=0;fontSize=10;" edge="1" parent="1" source="28" target="32">
                    <mxGeometry relative="1" as="geometry">
                        <Array as="points">
                            <mxPoint x="412" y="190"/>
                            <mxPoint x="390" y="190"/>
                            <mxPoint x="390" y="215"/>
                        </Array>
                    </mxGeometry>
                </mxCell>
                <mxCell id="36" style="edgeStyle=orthogonalEdgeStyle;html=1;exitX=1;exitY=0.5;exitDx=0;exitDy=0;entryX=0;entryY=0.5;entryDx=0;entryDy=0;fontSize=10;" edge="1" parent="1" source="28" target="35">
                    <mxGeometry relative="1" as="geometry"/>
                </mxCell>
                <mxCell id="40" style="edgeStyle=orthogonalEdgeStyle;html=1;exitX=0.75;exitY=0;exitDx=0;exitDy=0;entryX=0;entryY=0.5;entryDx=0;entryDy=0;fontSize=10;" edge="1" parent="1" source="28" target="39">
                    <mxGeometry relative="1" as="geometry"/>
                </mxCell>
                <mxCell id="28" value="Physical Plan" style="rounded=0;whiteSpace=wrap;html=1;fillColor=#dae8fc;strokeColor=#000000;" vertex="1" parent="1">
                    <mxGeometry x="390" y="140" width="90" height="30" as="geometry"/>
                </mxCell>
                <mxCell id="31" style="edgeStyle=orthogonalEdgeStyle;html=1;exitX=1;exitY=0.5;exitDx=0;exitDy=0;entryX=0.75;entryY=1;entryDx=0;entryDy=0;fontSize=10;" edge="1" parent="1" source="29" target="4">
                    <mxGeometry relative="1" as="geometry">
                        <Array as="points">
                            <mxPoint x="350" y="215"/>
                            <mxPoint x="350" y="190"/>
                            <mxPoint x="328" y="190"/>
                        </Array>
                    </mxGeometry>
                </mxCell>
                <mxCell id="29" value="Logical&lt;br&gt;Optimiser" style="ellipse;whiteSpace=wrap;html=1;aspect=fixed;fontSize=10;fillColor=#dae8fc;strokeColor=#000000;" vertex="1" parent="1">
                    <mxGeometry x="280" y="190" width="50" height="50" as="geometry"/>
                </mxCell>
                <mxCell id="33" style="edgeStyle=orthogonalEdgeStyle;html=1;exitX=1;exitY=0.5;exitDx=0;exitDy=0;entryX=0.75;entryY=1;entryDx=0;entryDy=0;fontSize=10;" edge="1" parent="1" source="32" target="28">
                    <mxGeometry relative="1" as="geometry">
                        <Array as="points">
                            <mxPoint x="480" y="215"/>
                            <mxPoint x="480" y="190"/>
                            <mxPoint x="458" y="190"/>
                        </Array>
                    </mxGeometry>
                </mxCell>
                <mxCell id="32" value="Physical&lt;br&gt;Optimiser" style="ellipse;whiteSpace=wrap;html=1;aspect=fixed;fontSize=10;fillColor=#dae8fc;strokeColor=#000000;" vertex="1" parent="1">
                    <mxGeometry x="410" y="190" width="50" height="50" as="geometry"/>
                </mxCell>
                <mxCell id="46" style="edgeStyle=orthogonalEdgeStyle;html=1;exitX=0.5;exitY=1;exitDx=0;exitDy=0;fontSize=10;entryX=0.5;entryY=0;entryDx=0;entryDy=0;" edge="1" parent="1" source="35" target="47">
                    <mxGeometry relative="1" as="geometry">
                        <mxPoint x="660.2758620689656" y="210" as="targetPoint"/>
                    </mxGeometry>
                </mxCell>
                <mxCell id="35" value="Code Generation" style="rounded=0;whiteSpace=wrap;html=1;fillColor=#f8cecc;strokeColor=#000000;" vertex="1" parent="1">
                    <mxGeometry x="600" y="140" width="120" height="30" as="geometry"/>
                </mxCell>
                <mxCell id="37" value="DEBUG" style="rounded=0;whiteSpace=wrap;html=1;fontSize=10;fillColor=#dae8fc;strokeColor=#000000;" vertex="1" parent="1">
                    <mxGeometry x="350" y="110" width="50" height="20" as="geometry"/>
                </mxCell>
                <mxCell id="39" value="DEBUG" style="rounded=0;whiteSpace=wrap;html=1;fontSize=10;fillColor=#dae8fc;strokeColor=#000000;" vertex="1" parent="1">
                    <mxGeometry x="490" y="110" width="50" height="20" as="geometry"/>
                </mxCell>
                <mxCell id="44" style="edgeStyle=orthogonalEdgeStyle;html=1;exitX=0;exitY=1;exitDx=0;exitDy=0;entryX=0.5;entryY=0;entryDx=0;entryDy=0;fontSize=10;" edge="1" parent="1" source="41" target="28">
                    <mxGeometry relative="1" as="geometry">
                        <Array as="points">
                            <mxPoint x="435" y="40"/>
                        </Array>
                    </mxGeometry>
                </mxCell>
                <mxCell id="45" style="edgeStyle=orthogonalEdgeStyle;html=1;exitX=1;exitY=1;exitDx=0;exitDy=0;fontSize=10;entryX=0.5;entryY=0;entryDx=0;entryDy=0;" edge="1" parent="1" source="41" target="35">
                    <mxGeometry relative="1" as="geometry">
                        <mxPoint x="640" y="120" as="targetPoint"/>
                        <Array as="points">
                            <mxPoint x="660" y="40"/>
                        </Array>
                    </mxGeometry>
                </mxCell>
                <mxCell id="41" value="Operators" style="rounded=0;whiteSpace=wrap;html=1;fillColor=#dae8fc;strokeColor=#000000;" vertex="1" parent="1">
                    <mxGeometry x="550" y="10" width="90" height="30" as="geometry"/>
                </mxCell>
                <mxCell id="42" value="Data Structures" style="rounded=0;whiteSpace=wrap;html=1;fillColor=#dae8fc;strokeColor=#000000;" vertex="1" parent="1">
                    <mxGeometry x="550" y="40" width="90" height="30" as="geometry"/>
                </mxCell>
                <mxCell id="48" style="edgeStyle=orthogonalEdgeStyle;html=1;exitX=1;exitY=0.5;exitDx=0;exitDy=0;fontSize=10;" edge="1" parent="1" source="47">
                    <mxGeometry relative="1" as="geometry">
                        <mxPoint x="760" y="215" as="targetPoint"/>
                    </mxGeometry>
                </mxCell>
                <mxCell id="47" value="Rust Quote" style="rounded=0;whiteSpace=wrap;html=1;fillColor=#f8cecc;strokeColor=#000000;" vertex="1" parent="1">
                    <mxGeometry x="615" y="200" width="90" height="30" as="geometry"/>
                </mxCell>
                <mxCell id="49" value="Basic volcano operators" style="text;html=1;strokeColor=none;fillColor=none;align=center;verticalAlign=middle;whiteSpace=wrap;rounded=0;fontSize=10;" vertex="1" parent="1">
                    <mxGeometry x="545" y="-20" width="100" height="30" as="geometry"/>
                </mxCell>
                <mxCell id="50" value="Contains spans for error messages" style="text;html=1;strokeColor=none;fillColor=none;align=center;verticalAlign=middle;whiteSpace=wrap;rounded=0;fontSize=10;" vertex="1" parent="1">
                    <mxGeometry x="255" y="30" width="100" height="30" as="geometry"/>
                </mxCell>
                <mxCell id="51" value="Logical Plan is built during semantic analysis" style="text;html=1;strokeColor=none;fillColor=none;align=center;verticalAlign=middle;whiteSpace=wrap;rounded=0;fontSize=10;" vertex="1" parent="1">
                    <mxGeometry x="160" y="180" width="100" height="40" as="geometry"/>
                </mxCell>
                <mxCell id="52" value="errors appear as normal rust compiler errors using the DIagnostics API" style="text;html=1;strokeColor=none;fillColor=none;align=center;verticalAlign=middle;whiteSpace=wrap;rounded=0;fontSize=10;" vertex="1" parent="1">
                    <mxGeometry x="50" y="220" width="100" height="40" as="geometry"/>
                </mxCell>
                <mxCell id="53" value="Parse with chumsky (includes error recovery)" style="text;html=1;strokeColor=none;fillColor=none;align=center;verticalAlign=middle;whiteSpace=wrap;rounded=0;fontSize=10;" vertex="1" parent="1">
                    <mxGeometry x="170" y="-10" width="120" height="40" as="geometry"/>
                </mxCell>
                <mxCell id="54" value="Rust code then compiled as part of application" style="text;html=1;strokeColor=none;fillColor=none;align=center;verticalAlign=middle;whiteSpace=wrap;rounded=0;fontSize=10;" vertex="1" parent="1">
                    <mxGeometry x="760" y="195" width="100" height="40" as="geometry"/>
                </mxCell>
                <mxCell id="55" value="Stitching operator implementations together" style="text;html=1;strokeColor=none;fillColor=none;align=center;verticalAlign=middle;whiteSpace=wrap;rounded=0;fontSize=10;" vertex="1" parent="1">
                    <mxGeometry x="720" y="135" width="100" height="40" as="geometry"/>
                </mxCell>
                <mxCell id="56" value="Basic Rule based optimisation" style="text;html=1;strokeColor=none;fillColor=none;align=center;verticalAlign=middle;whiteSpace=wrap;rounded=0;fontSize=10;" vertex="1" parent="1">
                    <mxGeometry x="255" y="240" width="100" height="40" as="geometry"/>
                </mxCell>
                <mxCell id="57" value="Initially just selecting basic operator implementation. Can be expanded later." style="text;html=1;strokeColor=none;fillColor=none;align=center;verticalAlign=middle;whiteSpace=wrap;rounded=0;fontSize=10;" vertex="1" parent="1">
                    <mxGeometry x="385" y="240" width="100" height="60" as="geometry"/>
                </mxCell>
                <mxCell id="58" value="Stitching operator implementations together" style="text;html=1;strokeColor=none;fillColor=none;align=center;verticalAlign=middle;whiteSpace=wrap;rounded=0;fontSize=10;" vertex="1" parent="1">
                    <mxGeometry x="660" y="20" width="100" height="40" as="geometry"/>
                </mxCell>
                <mxCell id="59" value="Plan includes schema (i.e indexes)" style="text;html=1;strokeColor=none;fillColor=none;align=center;verticalAlign=middle;whiteSpace=wrap;rounded=0;fontSize=10;" vertex="1" parent="1">
                    <mxGeometry x="255" y="280" width="100" height="40" as="geometry"/>
                </mxCell>
                <mxCell id="61" value="Legend" style="text;html=1;strokeColor=none;fillColor=none;align=center;verticalAlign=middle;whiteSpace=wrap;rounded=0;fontSize=12;" vertex="1" parent="1">
                    <mxGeometry x="840" y="-20" width="60" height="30" as="geometry"/>
                </mxCell>
                <mxCell id="62" value="" style="rounded=0;whiteSpace=wrap;html=1;fillColor=#f8cecc;strokeColor=#000000;" vertex="1" parent="1">
                    <mxGeometry x="840" y="10" width="20" height="10" as="geometry"/>
                </mxCell>
                <mxCell id="65" value="Compile Time Specific" style="text;html=1;strokeColor=none;fillColor=none;align=left;verticalAlign=middle;whiteSpace=wrap;rounded=0;fontSize=10;" vertex="1" parent="1">
                    <mxGeometry x="860" y="5" width="120" height="20" as="geometry"/>
                </mxCell>
                <mxCell id="66" value="" style="rounded=0;whiteSpace=wrap;html=1;fillColor=#dae8fc;strokeColor=#000000;" vertex="1" parent="1">
                    <mxGeometry x="840" y="25" width="20" height="10" as="geometry"/>
                </mxCell>
                <mxCell id="67" value="Normal Rust Code" style="text;html=1;strokeColor=none;fillColor=none;align=left;verticalAlign=middle;whiteSpace=wrap;rounded=0;fontSize=10;" vertex="1" parent="1">
                    <mxGeometry x="860" y="20" width="120" height="20" as="geometry"/>
                </mxCell>
            </root>
        </mxGraphModel>
    </diagram>
</mxfile>